<svg xmlns="http://www.w3.org/2000/svg" viewBox="0 0 600 420" fill="none">
  <defs>
    <radialGradient id="navyRad" cx="50%" cy="40%" r="80%">
      <stop offset="0%" stop-color="#1a365d"/>
      <stop offset="100%" stop-color="#0a1830"/>
    </radialGradient>
  </defs>
  <rect width="600" height="420" fill="url(#navyRad)"/>

  <!-- Główna tarcza -->
  <g transform="translate(300, 210)">
    <circle r="140" fill="none" stroke="#4a7ab5" stroke-width="0.5" opacity="0.3"/>
    <circle r="110" fill="none" stroke="#4a7ab5" stroke-width="0.5" opacity="0.4"/>
    <path d="M 0 -90 L 70 -60 L 70 30 Q 70 80 0 110 Q -70 80 -70 30 L -70 -60 Z" fill="#1a365d" stroke="#4a7ab5" stroke-width="2"/>
    <path d="M -30 0 L -10 22 L 35 -28" stroke="#c0392b" stroke-width="6" fill="none" stroke-linecap="round" stroke-linejoin="round"/>
  </g>

  <!-- Sześć małych ikonek wymagań NIS2 wokół -->
  <g fill="#4a7ab5" opacity="0.6">
    <circle cx="80" cy="80" r="6"/>
    <text x="80" y="85" font-family="Inter, sans-serif" font-size="9" fill="#fdfcf9" text-anchor="middle">1</text>
    <circle cx="520" cy="80" r="6"/>
    <text x="520" y="85" font-family="Inter, sans-serif" font-size="9" fill="#fdfcf9" text-anchor="middle">2</text>
    <circle cx="60" cy="210" r="6"/>
    <text x="60" y="215" font-family="Inter, sans-serif" font-size="9" fill="#fdfcf9" text-anchor="middle">3</text>
    <circle cx="540" cy="210" r="6"/>
    <text x="540" y="215" font-family="Inter, sans-serif" font-size="9" fill="#fdfcf9" text-anchor="middle">4</text>
    <circle cx="80" cy="340" r="6"/>
    <text x="80" y="345" font-family="Inter, sans-serif" font-size="9" fill="#fdfcf9" text-anchor="middle">5</text>
    <circle cx="520" cy="340" r="6"/>
    <text x="520" y="345" font-family="Inter, sans-serif" font-size="9" fill="#fdfcf9" text-anchor="middle">6</text>
  </g>

  <text x="300" y="40" font-family="'IBM Plex Sans', sans-serif" font-size="13" fill="#a8b8d0" text-anchor="middle" opacity="0.8" letter-spacing="3">10 OBSZARÓW WYMAGAŃ NIS2</text>
  <text x="300" y="395" font-family="'IBM Plex Sans', sans-serif" font-size="11" fill="#a8b8d0" text-anchor="middle" opacity="0.6">Polityka • Incydenty • Łańcuch dostaw • Szkolenia • Kryptografia • Kontrole</text>
</svg>
