<svg xmlns="http://www.w3.org/2000/svg" viewBox="0 0 600 420" fill="none">
  <defs>
    <radialGradient id="navyRadS" cx="50%" cy="40%" r="80%">
      <stop offset="0%" stop-color="#1a365d"/>
      <stop offset="100%" stop-color="#0a1830"/>
    </radialGradient>
  </defs>
  <rect width="600" height="420" fill="url(#navyRadS)"/>

  <!-- Główne koło: lupa -->
  <g transform="translate(280, 200)">
    <circle r="90" fill="none" stroke="#2d6a4f" stroke-width="3" opacity="0.8"/>
    <circle r="110" fill="none" stroke="#2d6a4f" stroke-width="0.5" opacity="0.3"/>
    <circle r="130" fill="none" stroke="#2d6a4f" stroke-width="0.5" opacity="0.2"/>
    <line x1="64" y1="64" x2="120" y2="120" stroke="#c9a961" stroke-width="6" stroke-linecap="round"/>

    <!-- Checkmarks wewnątrz -->
    <g transform="translate(-30, -30)">
      <path d="M 0 5 L 5 10 L 15 -5" stroke="#c9a961" stroke-width="2.5" fill="none" stroke-linecap="round"/>
    </g>
    <g transform="translate(0, -30)">
      <path d="M 0 5 L 5 10 L 15 -5" stroke="#c9a961" stroke-width="2.5" fill="none" stroke-linecap="round"/>
    </g>
    <g transform="translate(30, -30)">
      <path d="M 0 5 L 5 10 L 15 -5" stroke="#c9a961" stroke-width="2.5" fill="none" stroke-linecap="round"/>
    </g>
    <g transform="translate(-30, 0)">
      <path d="M 0 5 L 5 10 L 15 -5" stroke="#c9a961" stroke-width="2.5" fill="none" stroke-linecap="round"/>
    </g>
    <g transform="translate(0, 0)">
      <path d="M 0 5 L 5 10 L 15 -5" stroke="#c9a961" stroke-width="2.5" fill="none" stroke-linecap="round"/>
    </g>
    <g transform="translate(30, 0)">
      <circle cx="7" cy="2" r="3" fill="#c0392b" opacity="0.6"/>
    </g>
    <g transform="translate(-30, 30)">
      <path d="M 0 5 L 5 10 L 15 -5" stroke="#c9a961" stroke-width="2.5" fill="none" stroke-linecap="round"/>
    </g>
    <g transform="translate(0, 30)">
      <path d="M 0 5 L 5 10 L 15 -5" stroke="#c9a961" stroke-width="2.5" fill="none" stroke-linecap="round"/>
    </g>
    <g transform="translate(30, 30)">
      <path d="M 0 5 L 5 10 L 15 -5" stroke="#c9a961" stroke-width="2.5" fill="none" stroke-linecap="round"/>
    </g>
  </g>

  <text x="300" y="40" font-family="'IBM Plex Sans', sans-serif" font-size="13" fill="#a8b8d0" text-anchor="middle" opacity="0.8" letter-spacing="3">HOLISTYCZNY AUDYT FIRMY</text>
  <text x="300" y="395" font-family="'IBM Plex Sans', sans-serif" font-size="11" fill="#a8b8d0" text-anchor="middle" opacity="0.6">RODO • NIS2 • Procesy • Łańcuch dostaw • Kultura</text>
</svg>
